<?xml version="1.0" standalone="no"?><!DOCTYPE svg PUBLIC "-//W3C//DTD SVG 1.1//EN" "http://www.w3.org/Graphics/SVG/1.1/DTD/svg11.dtd"><svg t="1603330509167" class="icon" viewBox="0 0 1024 1024" version="1.1" xmlns="http://www.w3.org/2000/svg" p-id="11223" xmlns:xlink="http://www.w3.org/1999/xlink" width="293" height="293"><defs><style type="text/css"></style></defs><path d="M511.482 1003.925c-271.853 0-493.478-221.108-493.478-493.478S239.111 16.969 511.482 16.969s493.478 221.107 493.478 493.478-221.107 493.478-493.478 493.478z m0-950.192c-252.176 0-457.23 205.055-457.23 457.231s205.054 457.231 457.23 457.231c252.176 0 457.231-205.055 457.231-457.23 0-252.177-205.055-457.232-457.23-457.232z" fill="#0088CC" p-id="11224"></path><path d="M549.283 182.152c-18.642-16.57-46.604-16.57-65.245 0l-263.05 249.587c-9.839 9.32-10.357 24.337-1.554 34.175 8.803 9.839 23.82 10.357 34.176 1.554l4.143-4.143v260.98c0 26.926 21.748 48.674 48.674 48.674h141.364V626.955c0-18.641 15.017-34.176 34.176-34.176h66.28c18.641 0 34.176 15.535 34.176 34.176v146.024h144.47c26.927 0 48.675-21.748 48.675-48.675V466.95c10.874 9.839 25.89 8.803 35.211-1.036 8.803-9.838 8.285-25.373-1.553-34.175L549.283 182.152z" fill="#0088CC" p-id="11225"></path></svg>